<?xml version="1.0" encoding="utf-8"?>
<!-- Generator: Adobe Illustrator 21.0.0, SVG Export Plug-In . SVG Version: 6.00 Build 0)  -->
<svg version="1.1" id="Layer_1" xmlns="http://www.w3.org/2000/svg" xmlns:xlink="http://www.w3.org/1999/xlink" x="0px" y="0px"
	 width="1400px" height="980px" viewBox="0 0 1400 980" enable-background="new 0 0 1400 980" xml:space="preserve">
<rect x="3" y="1" fill="#7EE8E8" width="1396" height="748"/>
<path fill="#A9F7F5" d="M1399,360.4V749H3V341.7C126.7,281.9,383,183,597,263c294,110,416-52,526-28
	C1208.7,253.7,1310.1,351.3,1399,360.4z"/>
<rect x="1" y="719" fill="#CCFFED" width="1400" height="261.3"/>
<ellipse fill="#93C9B5" cx="715.8" cy="901.1" rx="473.2" ry="39"/>
<path fill="#FFFFFF" d="M79.6,173.7c0-0.1,0-0.3,0-0.4c0-12,9.7-21.7,21.7-21.7c4.8,0,9.2,1.6,12.8,4.2c6.7-15.2,22-25.9,39.7-25.9
	c4.1,0,8,0.6,11.8,1.6c0.9-12,11-21.4,23.2-21.4c4.4,0,8.6,1.2,12.1,3.4c5.2-17.2,21.2-29.8,40.2-29.8c18.5,0,34.1,11.9,39.8,28.5
	c12.2,3.9,22,13,26.8,24.7c4.1-2.3,8.9-3.5,13.9-3.5c16,0,29,13,29,29c0,4-0.8,7.9-2.3,11.3H79.6z"/>
<path fill="#FFFFFF" d="M1282.5,173.7c0-0.1,0-0.3,0-0.4c0-12-9.7-21.7-21.7-21.7c-4.8,0-9.2,1.6-12.8,4.2
	c-6.7-15.2-22-25.9-39.7-25.9c-4.1,0-8,0.6-11.8,1.6c-0.9-12-11-21.4-23.2-21.4c-4.4,0-8.6,1.2-12.1,3.4
	c-5.2-17.2-21.2-29.8-40.2-29.8c-18.5,0-34.1,11.9-39.8,28.5c-12.2,3.9-22,13-26.8,24.7c-4.1-2.3-8.9-3.5-13.9-3.5
	c-16,0-29,13-29,29c0,4,0.8,7.9,2.3,11.3H1282.5z"/>
<path fill="#FFFFFF" d="M776.2,231.7c0-0.1,0-0.2,0-0.3c0-7-5.7-12.7-12.7-12.7c-2.8,0-5.4,0.9-7.5,2.5
	c-3.9-8.9-12.9-15.2-23.2-15.2c-2.4,0-4.7,0.3-6.9,1c-0.6-7-6.4-12.5-13.6-12.5c-2.6,0-5,0.7-7.1,2c-3.1-10.1-12.4-17.4-23.5-17.4
	c-10.8,0-20,7-23.3,16.7c-7.1,2.3-12.9,7.6-15.7,14.5c-2.4-1.3-5.2-2.1-8.1-2.1c-9.4,0-17,7.6-17,17c0,2.4,0.5,4.6,1.4,6.6H776.2z"
	/>
<g>
	<g>
		<polygon fill="#2BB251" points="708.2,646.2 614.3,646.2 641.6,599.6 626.2,599.6 646.9,564.2 634.8,564.2 661,519.4 661.3,519 
			687.8,564.2 675.7,564.2 696.4,599.6 681,599.6 		"/>
		<polygon fill="#1E8236" points="661,519.4 661,646.2 614.3,646.2 641.6,599.6 626.2,599.6 646.9,564.2 634.8,564.2 		"/>
	</g>
	<g>
		<polygon fill="#2BB251" points="717.1,646.2 661.8,646.2 677.9,618.8 668.8,618.8 681,597.9 673.9,597.9 689.3,571.5 689.5,571.3 
			705.1,597.9 697.9,597.9 710.1,618.8 701.1,618.8 		"/>
		<polygon fill="#1E8236" points="689.3,571.5 689.3,646.2 661.8,646.2 677.9,618.8 668.8,618.8 681,597.9 673.9,597.9 		"/>
	</g>
</g>
<g>
	<g>
		<g>
			<path fill="#4FAAA1" d="M534.3,720H1l210.7-285.5l10.2-13.8c10.6-14.4,29.7-21.3,48.3-20.6c16.9,0.6,33.4,7.5,43.1,20.6
				l31.4,42.5L534.3,720z"/>
			<path fill="#429389" d="M270.2,400v320H1l210.7-285.5l10.2-13.8C232.6,406.2,251.6,399.3,270.2,400z"/>
			<path fill="#FFEFCD" d="M344.7,463.1c-0.5,3.5-1.4,6.6-3,8.8c-8.1,11.3-17.9-22.1-25.9-10.8c-8.1,11.3-12.1,5-19-3.6
				c-6.9-8.6,4,16.2-13.8,22.1c-5.1,1.7-9.2,0.7-12.7-1.2c-0.2-0.1-0.4-0.2-0.6-0.3c-8.3-4.9-13.6-14.8-23.6-5.7
				c-14.4,13.1-21.3-7.2-20.2-31.1c0.4-9-6-9.6-14.1-6.8l10.2-13.8c10.5-14.3,29.3-21.1,47.7-20.6c0.2,0,0.4,0,0.6,0
				c16.9,0.6,33.4,7.5,43.1,20.6L344.7,463.1z"/>
			<path fill="#DBC6A2" d="M269.7,400v78c-8.3-4.9-13.6-14.8-23.6-5.7c-14.4,13.1-21.3-7.2-20.2-31.1c0.4-9-6-9.6-14.1-6.8
				l10.2-13.8C232.5,406.4,251.2,399.5,269.7,400z"/>
		</g>
		<g>
			<path fill="#4FAAA1" d="M719.5,720H311.4l161.3-218.5l7.8-10.6c8.1-11,22.7-16.3,36.9-15.8c12.9,0.5,25.6,5.7,33,15.8l24,32.5
				L719.5,720z"/>
			<path fill="#429389" d="M517.5,475.1V720H311.4l161.3-218.5l7.8-10.6C488.7,479.8,503.2,474.6,517.5,475.1z"/>
			<path fill="#FFEFCD" d="M574.4,523.4c-0.4,2.7-1.1,5.1-2.3,6.7c-6.2,8.6-13.7-16.9-19.9-8.3c-6.2,8.6-9.3,3.8-14.6-2.8
				c-5.3-6.6,3.1,12.4-10.6,16.9c-3.9,1.3-7,0.5-9.7-0.9c-0.2-0.1-0.3-0.2-0.4-0.3c-6.4-3.7-10.4-11.3-18.1-4.3
				c-11,10-16.3-5.5-15.4-23.8c0.3-6.9-4.6-7.3-10.8-5.2l7.8-10.6c8.1-10.9,22.4-16.2,36.5-15.8c0.1,0,0.3,0,0.4,0
				c12.9,0.5,25.6,5.7,33,15.8L574.4,523.4z"/>
			<path fill="#DBC6A2" d="M517,475.1v59.7c-6.4-3.7-10.4-11.3-18.1-4.3c-11,10-16.3-5.5-15.4-23.8c0.3-6.9-4.6-7.3-10.8-5.2
				l7.8-10.6C488.6,480,502.9,474.7,517,475.1z"/>
		</g>
	</g>
	<g>
		<g>
			<path fill="#4FAAA1" d="M1200.5,720H629l225.8-451.5l11-21.9c11.4-22.8,31.8-33.7,51.7-32.5c18.1,1,35.8,11.8,46.2,32.5
				l33.6,67.2L1200.5,720z"/>
			<path fill="#429389" d="M917.5,214.1V720H629l225.8-451.5l11-21.9C877.2,223.8,897.6,213,917.5,214.1z"/>
			<path fill="#FFEFCD" d="M997.3,313.8c-0.5,5.6-1.5,10.4-3.2,13.9c-8.7,17.8-19.2-34.9-27.8-17.1c-8.7,17.8-13,7.9-20.4-5.7
				c-7.4-13.6,4.3,25.7-14.8,34.9c-5.5,2.7-9.9,1.1-13.6-1.9c-0.2-0.2-0.4-0.3-0.6-0.5c-8.9-7.7-14.6-23.4-25.3-9
				c-15.4,20.7-22.9-11.4-21.6-49.2c0.5-14.2-6.4-15.1-15.1-10.7l11-21.9c11.3-22.6,31.4-33.4,51.1-32.6c0.2,0,0.4,0,0.6,0
				c18.1,1,35.8,11.8,46.2,32.5L997.3,313.8z"/>
			<path fill="#DBC6A2" d="M916.9,214.1v123.4c-8.9-7.7-14.6-23.4-25.3-9c-15.4,20.7-22.9-11.4-21.6-49.2
				c0.5-14.2-6.4-15.1-15.1-10.7l11-21.9C877.1,224,897.2,213.2,916.9,214.1z"/>
		</g>
		<g>
			<path fill="#4FAAA1" d="M1399,720H961.6l172.8-345.5l8.4-16.8c8.7-17.5,24.3-25.8,39.6-24.9c13.9,0.8,27.4,9.1,35.3,24.9
				l25.7,51.4L1399,720z"/>
			<path fill="#429389" d="M1182.4,332.8V720H961.6l172.8-345.5l8.4-16.8C1151.6,340.3,1167.2,331.9,1182.4,332.8z"/>
			<path fill="#FFEFCD" d="M1243.5,409.1c-0.4,4.3-1.1,8-2.4,10.7c-6.6,13.6-14.7-26.7-21.3-13.1c-6.6,13.6-9.9,6-15.6-4.4
				c-5.7-10.4,3.3,19.6-11.3,26.7c-4.2,2-7.5,0.9-10.4-1.5c-0.2-0.1-0.3-0.3-0.5-0.4c-6.8-5.9-11.2-17.9-19.4-6.9
				c-11.8,15.8-17.5-8.7-16.5-37.7c0.4-10.9-4.9-11.6-11.6-8.2l8.4-16.8c8.6-17.3,24-25.6,39.1-24.9c0.2,0,0.3,0,0.5,0
				c13.9,0.8,27.4,9.1,35.3,24.9L1243.5,409.1z"/>
			<path fill="#DBC6A2" d="M1182,332.8v94.4c-6.8-5.9-11.2-17.9-19.4-6.9c-11.8,15.8-17.5-8.7-16.5-37.7c0.4-10.9-4.9-11.6-11.6-8.2
				l8.4-16.8C1151.5,340.4,1166.9,332.1,1182,332.8z"/>
		</g>
	</g>
</g>
<polygon fill="#06664B" points="1254.6,768.2 1144.8,768.2 1176.7,713.7 1158.6,713.7 1182.9,672.3 1168.7,672.3 1199.4,619.9 
	1199.7,619.4 1230.7,672.3 1216.6,672.3 1240.8,713.7 1222.8,713.7 "/>
<polygon fill="#1E8236" points="1199.4,619.9 1199.4,768.2 1144.8,768.2 1176.7,713.7 1158.6,713.7 1182.9,672.3 1168.7,672.3 "/>
<polygon fill="#06664B" points="1371.7,768.2 1211.4,768.2 1257.9,688.7 1231.6,688.7 1267,628.3 1246.4,628.3 1291.1,551.8 
	1291.6,551 1336.8,628.3 1316.2,628.3 1351.5,688.7 1325.2,688.7 "/>
<polygon fill="#1E8236" points="1291.1,551.8 1291.1,768.2 1211.4,768.2 1257.9,688.7 1231.6,688.7 1267,628.3 1246.4,628.3 "/>
<g>
	<g>
		<polygon fill="#2BB251" points="1057.6,736.2 1151.3,736.2 1124.1,689.7 1139.5,689.7 1118.8,654.4 1130.9,654.4 1104.7,609.7 
			1104.5,609.3 1078.1,654.4 1090.1,654.4 1069.5,689.7 1084.8,689.7 		"/>
		<polygon fill="#1E8236" points="1104.7,609.7 1104.7,736.2 1151.3,736.2 1124.1,689.7 1139.5,689.7 1118.8,654.4 1130.9,654.4 		
			"/>
	</g>
	<g>
		<polygon fill="#2BB251" points="957.8,736.2 1094.5,736.2 1054.8,668.4 1077.3,668.4 1047.1,616.9 1064.7,616.9 1026.5,551.7 
			1026.2,551 987.6,616.9 1005.2,616.9 975,668.4 997.5,668.4 		"/>
		<polygon fill="#1E8236" points="1026.5,551.7 1026.5,736.2 1094.5,736.2 1054.8,668.4 1077.3,668.4 1047.1,616.9 1064.7,616.9 		
			"/>
	</g>
</g>
<g>
	<g>
		<polygon fill="#2BB251" points="186.4,750.2 103.8,750.2 127.8,709.2 114.2,709.2 132.4,678.1 121.8,678.1 144.8,638.8 
			145.1,638.4 168.4,678.1 157.7,678.1 175.9,709.2 162.4,709.2 		"/>
		<polygon fill="#1E8236" points="144.8,638.8 144.8,750.2 103.8,750.2 127.8,709.2 114.2,709.2 132.4,678.1 121.8,678.1 		"/>
	</g>
	<g>
		<polygon fill="#2BB251" points="274.3,750.2 153.9,750.2 188.8,690.4 169.1,690.4 195.6,645.1 180.1,645.1 213.8,587.6 214.1,587 
			248.1,645.1 232.6,645.1 259.1,690.4 239.4,690.4 		"/>
		<polygon fill="#1E8236" points="213.8,587.6 213.8,750.2 153.9,750.2 188.8,690.4 169.1,690.4 195.6,645.1 180.1,645.1 		"/>
	</g>
</g>
<g>
	<path fill="#17141E" d="M840.1,392.8c0,0-3.7,26.1-6.2,30.9c-2.5,4.8-6.1,27.6,12.9,26.9c18.9-0.7,35.9-38.6,35.9-38.6l-5.6-22.3
		L840.1,392.8z"/>
	<path fill="#292435" d="M919.2,292.1c0,0,28.8,14.2,31.4,58.3s33,79.4-5.4,96.1c-38.4,16.7-65,6.3-65,6.3l11.6-75.5l-1.4-53.9
		L919.2,292.1z"/>
	<g>
		
			<rect x="735.6" y="531.8" transform="matrix(0.9967 -8.145393e-02 8.145393e-02 0.9967 -55.0817 62.5583)" fill="#161616" width="7.2" height="349.2"/>
		<path fill="#0D3E59" d="M729.9,536.8l-9,0.7c-2.1,0.2-3.9-1.4-4-3.4l-5.2-63.8c-0.2-2.1,1.4-3.9,3.4-4l9-0.7
			c2.1-0.2,3.9,1.4,4,3.4l5.2,63.8C733.5,534.8,731.9,536.6,729.9,536.8z"/>
		<path fill="#0D3E59" d="M760.7,854.5L742,856c-1,0.1-1.8-0.7-1.9-1.6l-1.3-15.8c-0.1-1,0.7-1.8,1.6-1.9l18.7-1.5
			c1-0.1,1.8,0.7,1.9,1.6l1.3,15.8C762.4,853.5,761.7,854.4,760.7,854.5z"/>
	</g>
	<path fill="#F2BAAF" d="M949.7,544.4c0,0-5.1,11.8-12.7,13.2c-7.5,1.4-8.5,12.9-6.2,16.9c2.2,4,16.7,26.3,26.9,9.4
		c0,0,9.6-12.4,10.7-36.5C969.5,523.2,949.7,544.4,949.7,544.4z"/>
	<path fill="#F2BAAF" d="M735.5,515.7c-11.6,0-19.2-0.9-24.1-2.5c-9.4-3.1-9.1-8.7-9.1-15.8c0-10.8,3.8-18.7,9.4-19.5
		c1-0.2,2.7-0.2,4.7-0.3c9.2-0.1,26.1,1.3,25,4.8c-1.3,4.3,0,12.6,0,12.6S769.3,515.7,735.5,515.7z"/>
	<path fill="#FFDD00" d="M1006.4,857.4c0,0-7.1,32.5-17,32.5s-18.9-0.9-21.9,10.8h41.8c0,0,7.7,0.9,13.9-11.1s10.5-25.1,10.5-25.1
		s-3-16.1-10.2-23.4C1016.4,833.9,1006.4,857.4,1006.4,857.4z"/>
	<path fill="#FFDD00" d="M705.2,852.1c0,0,4.5-8.9,24.3,3.7c19.8,12.6,24.3,15.7,28.8,14.4c4.5-1.2,13.8-4.7,13.8-4.7l5.8,13.2
		l0.4,7.7c0,0-3.3,14.4-10.8,21.4C760.1,915,705.2,852.1,705.2,852.1z"/>
	
		<ellipse transform="matrix(0.6676 -0.7445 0.7445 0.6676 -410.4244 840.7479)" fill="#A3A3A3" cx="736.3" cy="880" rx="7.5" ry="41.9"/>
	<path fill="#112E4C" d="M1028.3,835.2c-0.6,2.5-3.3,5.9-6.9,9.3c-5.4,5.2-12.6,10.5-16.3,12.8c-7.1,4.5-22.5-24.9-22.5-24.9
		l13.4-14.8l2.9-3.2l6.7-7.4c0,0,17.1,20.7,22.1,25.4C1028.4,833.1,1028.6,834.1,1028.3,835.2z"/>
	<path fill="#F2F2F2" d="M1028.3,835.2c-0.6,2.5-3.3,5.9-6.9,9.3c-3-13.1-17.4-20.5-17.4-20.5l-8.1-6.4l2.9-3.2
		c3.3,1,6.8,2.2,10.2,3.4C1016.2,820.3,1024.3,830,1028.3,835.2z"/>
	<path fill="#112E4C" d="M768.9,836.9c0,0-16.4,25.9-10.7,32s25,16.1,27.9,12.3s20-32.3,20-32.3L768.9,836.9z"/>
	<path fill="#173C68" d="M1009.1,817.9c-1.4,2.1-3.1,4.1-5,6.2c-5.7,6.3-12.9,12.2-17.9,15.6c-11.1,7.5-20.4-12.2-53.3-44.7
		c-28.1-27.8-35-107-36.5-129.4c-0.2-3.8-0.3-6-0.3-6c-10,15.4-75,172.2-82.2,188c-7.1,15.7-16.1,9.6-36.8,2.1
		c-20.7-7.5-11.5-26.4-11.5-26.4c16.6-62.2,75.4-190.2,87.8-216.8c1.5-3.2,2.3-4.9,2.3-4.9v-8.3c0,0,9.3-57.4,60.3-23.1
		c51,34.3,34.8,77.9,35.8,126.5c1.1,48.6,8.2,49.7,20.7,64.3c12.5,14.6,32.9,32.5,39.7,41.8C1015.1,806.6,1013.1,812.1,1009.1,817.9
		z"/>
	<path fill="#771B1B" d="M875.7,410.4l-2.9,17c-0.1,0-0.2-0.1-0.3-0.1c-0.3-0.1-0.7-0.2-1.2-0.3c-4.2-0.8-14.4-0.5-14.4-0.5
		c1.3-4.1,2.9-7.1,4.6-9.4c0.9-1.2,1.8-2.2,2.8-3C869.9,409,875.7,410.4,875.7,410.4z"/>
	<path fill="#F2F2F2" d="M872.5,427.3c-0.3-0.1-0.7-0.2-1.2-0.3c-1.9-2.9-5.3-7.1-9.8-9.9c0.9-1.2,1.8-2.2,2.8-3
		C867.1,416.8,870.9,421.3,872.5,427.3z"/>
	<path fill="#EDEDED" d="M976.4,548.3c0,1.1-0.2,2.2-0.3,3.2c-0.1,0.7-0.2,1.3-0.3,1.8c-1.4,7-15.2,3.9-24.1,0c-3.1-1.4-4-4.1-4-7.2
		c0-1.4,0.3-2.8,0.6-4.2c1.1-4.5,3.4-8.5,3.4-8.5l24.1-2C975.8,531.6,976.7,540.9,976.4,548.3z"/>
	<path fill="#FFCDC0" d="M927.5,362c0,18.8-11.6,12.1-21.8,15.4c-1.3,0.4-2.3,1.3-3.2,2.6c-6.3,9-4.3,36.2-4.3,36.2l-28.2,24.3
		l-0.9-4.3c0,0,3.4-14.6,2-24.7c-1.4-10-23.3-7.9-37.1-12.5c-0.1,0-0.1,0-0.1,0c-13.7-4.7-3-83.1-3-83.1l-1.1-7.7l8.9-4.6l20.4,3.9
		l49.9,8.7l0.2,43.1C909.1,359.3,927.5,343.2,927.5,362z"/>
	<path fill="#F2BAAF" d="M902.4,379.9c-6.3,9-4.3,36.2-4.3,36.2l-28.2,24.3l-0.9-4.3c0,0,3.4-14.6,2-24.7
		c-1.4-10-23.3-7.9-37.1-12.5c1.5,0.3,18.8,3.3,38.5,0.7c20.6-2.7,11.6-70.4,11.6-70.4h-1.3l8.3-2l13.1,14.5L902.4,379.9z"/>
	<path fill="#5B1616" d="M924.8,432.4c0,0,72.6,36.7,53.1,107.7c0,0-4,6.7-17.7,3.2c-13.7-3.5-11-7.2-11-21.2
		c0-13.9,3.5-30.6-28.9-52.8C887.8,447.1,924.8,432.4,924.8,432.4z"/>
	<path fill="#292435" d="M911.7,387c-0.3,1.8-0.4,3.4-0.4,5c0,0.1,0,0.2,0,0.2c0.6,12.8,11.9,20.4,11.9,20.4
		c-29.1,10.1-28.3-52.8-28.1-61.4c0-0.6,0-1,0-1c-31.3,0.4-54.3-42.9-54.3-42.9c-11.1,8.9-11.7,27-11.7,27
		c-5.3,49.5,1.4,60.6,1.4,60.6c0.9,22,11.6,24,11.6,24c-30.9,9.3-23.1-92.4-18.8-108.8c4.3-16.4,14.6-9.8,14.6-9.8
		c10.7-7.1,34.3-21.4,54.5-19.1c20.2,2.3,53.1,22.9,57.7,65.6C954.9,389.3,911.7,387,911.7,387z"/>
	<path fill="#FFCDC0" d="M909.6,359.3l-1.1,3.4l-2.3,14.6c10.2-3.2,21.7,3.4,21.7-15.4C928,343.4,910,358.9,909.6,359.3z"/>
	<path fill="#E29A8F" d="M912.1,372c0,0-0.2-11.2,6.6-12s1.8,8.6,0,9.2C916.9,369.8,912.5,369.8,912.1,372z"/>
	<path fill="#EDEDED" d="M927.5,461.3c-2.6,6.3-6.5,14.2-11.4,22.7c-18.3,32-49.6,72.8-70.9,70.1c-10.5-1.4-27.4-4-44.2-7.5
		c-26.6-5.7-52.6-13.8-51-23c2.7-15,5.1-31.4,16.9-29.5c11.8,1.9,12.9,8.3,19.6,11.3c1.7,0.8,5,2.2,9,3.8
		c10.1,4.1,25.1,9.3,33.4,8.4c1.3-0.2,2.5-0.5,3.4-0.9c0,0-7-10.2-14.8-17.4c-2-1.9-3.4-4.5-3.8-7.8c-1.2-9.3,5.1-23.8,24.7-41.2
		c0,0,15.9-17.5,18.4-23.6c2.5-6.1,13.8,0.4,13.8,0.4l-1.6,9.3c0,0,3-9.4,17.9-15.5c11.2-4.7,24.7,0.6,30.6,3.5c0,0,0,0,0,0
		c1.9,0.9,3,1.6,3,1.6s1.5,0.5,3.5,1.8c0,0,0.1,0,0.1,0.1c0.3,0.2,0.6,0.4,0.9,0.7C929.9,432.1,935.7,441.2,927.5,461.3z"/>
	<path fill="#771B1B" d="M923.3,410.2c0,0-0.6,3-1.3,6.5c-0.3,1.7-0.6,3.5-0.9,5.1c-0.4,2.4-0.6,4.4-0.4,5.1
		c0.6,1.9-34.8-2.1-48.2,3.8c0,0,0.5-1.6,1.9-3.9c0.3-0.5,0.6-1.1,1.1-1.6C880.6,417.5,893.7,405.6,923.3,410.2z"/>
	<path fill="#EDEDED" d="M763.1,498.3l-4.5,28.4c0,0-8.6,0.7-15.6-1.2c-2.1-0.6-4.1-1.4-5.7-2.6c-0.5-0.4-1-0.8-1.4-1.2
		c-5.9-6.4,3.5-28.9,6.7-32.7c1.1-1.2,3.7-0.6,6.7,0.8c1.2,0.5,2.4,1.2,3.7,1.9C758.1,494.5,763.1,498.3,763.1,498.3z"/>
	<path fill="#F2F2F2" d="M1009.1,817.9c-1.4,2.1-3.1,4.1-5,6.2c-0.2-4.9-3-11.8-13.6-19.4c-20.4-14.6-64.7-41.8-62.9-94.3
		c1.8-52.5,12.9-110.4-21.8-123.3c-34.7-12.9,0-6.8,0-6.8s27.5,11.4,29.3,44.7c1.8,33.2-13.7,102.9,12.7,134.7
		C972.6,789.6,1005.1,798.9,1009.1,817.9z"/>
	<path fill="#B7B7B7" d="M916.1,484c-18.3,32-49.6,72.8-70.9,70.1c-10.5-1.4-27.4-4-44.2-7.5l-5.5-37.4c10.1,4.1,25.1,9.3,33.4,8.4
		c1.3-0.2,2.5-0.5,3.4-0.9c0,0-7-10.2-14.8-17.4c-2-1.9-3.4-4.5-3.8-7.8c8.6-4.5,23.6-3.2,30.3,1.9
		C849.7,497.5,888.5,500.9,916.1,484z"/>
	<path fill="#EDEDED" d="M930.8,450.6c0,0-29.1,48.5-23.5,75.3c5.6,26.8,13.1,38.3,17.7,41.5c0,0-24.3,42.9-69.2,34
		c0,0-11.2-12.3-13-54.7C840.9,504.5,930.8,450.6,930.8,450.6z"/>
	<path fill="#771B1B" d="M927.5,461.3c-12.4,30-55.3,96.2-82.3,92.7c-27.1-3.5-97.8-15.5-95.2-30.6c2.7-15,5.1-31.4,16.9-29.5
		c11.8,1.9,12.9,8.3,19.6,11.3c6,2.6,30.8,13.5,42.4,12.2c5.9,0.1,11.2-1.8,15.2-6.8c21.7-27.1,58.7-78.8,58.7-78.8
		s5.2-10.2,14.8-7.8c0,0,0,0,0,0c2,0.5,4.2,1.6,6.5,3.4c0,0,0.1,0,0.1,0.1c0.3,0.2,0.6,0.4,0.9,0.7
		C929.9,432.1,935.7,441.2,927.5,461.3z"/>
	<path fill="#292435" d="M923.3,412.6c-29.1,10.1-28.3-52.8-28.1-61.4l0,0c4.5,1.7,15-1,15-1c-2.2,16.2,0.8,39.8,1.1,41.9
		c0,0.1,0,0.2,0,0.2C911.9,405,923.3,412.6,923.3,412.6z"/>
	<g>
		<path fill="#1E1C18" d="M841.4,307.2c2,3.7,4.4,7.3,6.9,10.7c2.5,3.4,5.2,6.7,8.1,9.8c5.8,6.1,12.3,11.6,19.6,15.6
			c3.7,2,7.5,3.5,11.5,4.6c2,0.6,4,0.9,6,1.2l3.1,0.3l0.8,0.1l0.8,0l1.5,0l1.5,0c0.5,0,1-0.1,1.5-0.1c1-0.1,2-0.2,3.1-0.3
			c2-0.4,4-0.6,6-1.2c4-0.9,7.9-2.4,11.7-3.9l-0.2,3.3c-2-1.4-3.9-2.8-5.8-4.2c-1.9-1.4-3.8-2.9-5.6-4.5c-1.8-1.6-3.6-3.2-5.3-4.9
			c-0.8-0.9-1.7-1.8-2.4-2.7c-0.7-1-1.4-2-1.8-3.2l0.4-0.1c0.5,1,1.4,1.8,2.2,2.6c0.9,0.8,1.8,1.5,2.7,2.2c1.9,1.4,3.8,2.8,5.8,4.1
			c2,1.3,3.9,2.6,5.9,3.9c2,1.3,4,2.5,6,3.7l2.9,1.8l-3.2,1.5c-3.9,1.9-8,3.6-12.4,4.5c-2.1,0.6-4.3,0.8-6.5,1.1
			c-1.1,0.1-2.2,0.1-3.3,0.2c-0.6,0-1.1,0.1-1.7,0l-1.7-0.1c-2.2,0-4.4-0.4-6.6-0.7c-2.2-0.5-4.3-0.9-6.4-1.6
			c-4.2-1.3-8.2-3.1-12-5.3c-7.5-4.5-14-10.3-19.5-16.8c-2.8-3.3-5.3-6.7-7.7-10.3c-2.4-3.6-4.5-7.3-6.4-11.1L841.4,307.2z"/>
	</g>
	<ellipse fill="#1C1C1C" cx="837.7" cy="354.8" rx="2.9" ry="4.4"/>
	<ellipse fill="#1C1C1C" cx="871" cy="354.8" rx="2.9" ry="4.4"/>
	<path fill="#D64D4D" d="M849.1,354.8c0,0-2.5,8.7-4.7,11.6c-2.2,2.9,6.9,6.7,7.4-0.7C852.3,358.2,849.1,354.8,849.1,354.8z"/>
	<path fill="#212121" d="M869.7,373.4c0,0-2.4,2.7-5.7,5.7h0c-4.2,3.8-9.9,8-14.3,8c-2.9,0-5.5-1.8-7.7-4c-3.9-4.1-6.4-9.7-6.4-9.7
		s1.6,0.4,4.5,0.9c4.5,0.6,12.2,1.2,22.3,0.1C864.8,374.1,867.2,373.8,869.7,373.4z"/>
	<path fill="#FFFFFF" d="M862.5,374.3v0.8c0,1.2-1,2.1-2.1,2.1h-18.1c-1.2,0-2.1-0.9-2.1-2.1v-0.9
		C844.6,374.8,852.3,375.4,862.5,374.3z"/>
	<path fill="#D64D4D" d="M864,379.1c-4.2,3.8-9.9,8-14.3,8c-2.9,0-5.5-1.8-7.7-4C844.5,380.8,850.4,378.5,864,379.1z"/>
	<g>
		<path fill="#1C1C1C" d="M825.5,339.9c0.8-1.7,2.1-3.1,3.7-4.2c1.6-1.1,3.6-1.7,5.6-1.6c2,0.1,3.9,0.8,5.5,1.8
			c0.8,0.5,1.5,1.2,2.2,1.8c0.6,0.7,1.2,1.4,1.7,2.2c-0.8-0.4-1.6-0.9-2.3-1.4l-1.2-0.6c-0.4-0.2-0.7-0.5-1.1-0.6
			c-1.6-0.7-3.2-1.1-4.8-1.2c-1.6-0.1-3.2,0.3-4.8,1C828.4,337.8,826.9,338.7,825.5,339.9z"/>
	</g>
	<g>
		<path fill="#F7AF97" d="M859.1,385.6c-0.4,2.1-1.7,3.8-3.4,5.1c-1.7,1.3-4.1,2-6.4,1.8c-2.3-0.2-4.4-1.2-5.9-2.7
			c-0.8-0.7-1.3-1.6-1.9-2.4c-0.4-0.9-0.9-1.8-1.1-2.8l0.2-0.2l1.9,1.8c0.7,0.5,1.4,1.1,2.1,1.6c1.5,0.9,3.2,1.5,4.9,1.7
			c1.7,0.2,3.5-0.2,5.1-0.9c0.8-0.4,1.6-0.8,2.3-1.4c0.7-0.5,1.4-1.1,2-1.7L859.1,385.6z"/>
	</g>
	<g>
		<path fill="#1C1C1C" d="M861.7,339.9c0.8-1.7,2.1-3.1,3.7-4.2c1.6-1.1,3.6-1.7,5.6-1.6c2,0.1,3.9,0.8,5.5,1.8
			c0.8,0.5,1.5,1.2,2.2,1.8c0.6,0.7,1.2,1.4,1.7,2.2c-0.8-0.4-1.6-0.9-2.3-1.4l-1.2-0.6c-0.4-0.2-0.7-0.5-1.1-0.6
			c-1.6-0.7-3.2-1.1-4.8-1.2c-1.6-0.1-3.2,0.3-4.8,1C864.6,337.8,863.1,338.7,861.7,339.9z"/>
	</g>
	<path fill="#F2F2F2" d="M922,416.6c-0.3,1.7-0.6,3.5-0.9,5.1c-6.8-0.7-28.3-2.3-46.8,5c0.3-0.5,0.6-1.1,1.1-1.6
		C882,420.9,897.1,414.2,922,416.6z"/>
	<g>
		<path fill="#EDEDED" d="M869.1,436.2c-1.2,3.5-2.8,6.9-5,10c-1.1,1.5-2.5,2.8-3.7,4.2c-1.2,1.4-2.4,2.8-3.5,4.3
			c-2.3,2.9-4.4,6-6.3,9.1c-2,3.1-3.8,6.3-4.9,9.9l-0.1,0c0.2-1.9,0.8-3.7,1.5-5.4c0.8-1.7,1.6-3.4,2.6-5c1.9-3.2,4.2-6.2,6.6-9.1
			c1.2-1.4,2.4-2.9,3.6-4.2c1.2-1.4,2.6-2.7,3.8-4.1C866,442.9,867.7,439.6,869.1,436.2L869.1,436.2z"/>
	</g>
	<ellipse transform="matrix(0.5 -0.866 0.866 0.5 52.1918 1022.0743)" fill="#A33D3D" cx="911.2" cy="465.8" rx="14.2" ry="11.3"/>
	<path fill="#771B1B" d="M976.4,548.3c0,1.1-0.2,2.2-0.3,3.2c-11.3,3.2-21.5-0.9-28.4-5.3c0-1.4,0.3-2.8,0.6-4.2
		C960.1,550.1,970.6,549.6,976.4,548.3z"/>
	<path fill="#771B1B" d="M749.2,489.7c-3.4,3.4-8.2,11.9-12,33.2c1.6,1.2,3.6,2,5.7,2.6c0.3-5.8,2-21.2,9.9-33.9"/>
	<path fill="#112E4C" d="M896.5,665.5c-0.2-3.8-0.3-6-0.3-6c-10,15.4-75,172.2-82.2,188c-7.1,15.7-16.1,9.6-36.8,2.1
		c-20.7-7.5-11.5-26.4-11.5-26.4c16.6-62.2,75.4-190.2,87.8-216.8c4.7,11.5,16.4,33.5,40.5,47.7C894,654.1,897.7,653.3,896.5,665.5z
		"/>
	<path fill="#DDA69E" d="M711.4,513.2c-9.4-3.1-9.1-8.7-9.1-15.8c0-10.8,3.8-18.7,9.4-19.5c1-0.2,2.7-0.2,4.7-0.3
		C713,483.8,710.3,494.5,711.4,513.2z"/>
	<g>
		
			<rect x="1064" y="556.8" transform="matrix(0.7922 -0.6103 0.6103 0.7922 -221.7846 802.5927)" fill="#161616" width="7" height="340.2"/>
		<path fill="#0D3E59" d="M969.9,593.2l-6.8,5.2c-1.6,1.3-4,1-5.3-0.7l-38-49.3c-1.3-1.6-1-4,0.7-5.3l6.8-5.2c1.6-1.3,4-1,5.3,0.7
			l38,49.3C971.8,589.6,971.5,592,969.9,593.2z"/>
		<path fill="#0D3E59" d="M1163.5,836.6l-14.4,11.1c-0.8,0.6-1.9,0.5-2.5-0.3l-9.4-12.2c-0.6-0.8-0.5-1.9,0.3-2.5l14.4-11.1
			c0.8-0.6,1.9-0.5,2.5,0.3l9.4,12.2C1164.4,834.9,1164.3,836,1163.5,836.6z"/>
	</g>
	<path fill="#BA7A70" d="M945.9,592.9l-20.6-19.1c-1.9-1.7-2-4.7-0.2-6.6l10.2-11c1.7-1.9,4.7-2,6.6-0.2l20.6,19.1
		c1.9,1.7,2,4.7,0.2,6.6l-10.2,11C950.7,594.5,947.8,594.6,945.9,592.9z"/>
	
		<ellipse transform="matrix(0.7071 -0.7071 0.7071 0.7071 -121.0415 831.4121)" fill="#CC887A" cx="943.1" cy="561.8" rx="5.5" ry="9.9"/>
</g>
<g>
	<polygon fill="#DDAE1B" points="567.2,306.3 539.4,350.9 537.6,315.8 557.9,293.9 	"/>
	<path fill="#897F24" d="M608.8,368.6h-36.3c-7,0-12.6,5.7-12.6,12.6v20.4c0,2.2,0.6,4.3,1.6,6.1v-19.5c0-7,5.7-12.6,12.6-12.6h33.1
		c7,0,12.6,5.7,12.6,12.6v19.5c1-1.8,1.6-3.9,1.6-6.1v-20.4C621.5,374.3,615.8,368.6,608.8,368.6z"/>
	<path fill="#DDCF22" d="M677.3,409.7v153.6c0,14.2-11.6,25.7-25.7,25.7H515.8c-14.2,0-25.7-11.6-25.7-25.7V409.7
		c0-14.2,11.6-25.7,25.7-25.7h135.8C665.7,383.9,677.3,395.5,677.3,409.7z"/>
	<path fill="#897F24" d="M641.3,409.7v153.6c0,14.2-11.6,25.7-25.7,25.7h-99.8c-14.2,0-25.7-11.6-25.7-25.7V409.7
		c0-14.2,11.6-25.7,25.7-25.7h99.8C629.7,383.9,641.3,395.5,641.3,409.7z"/>
	<path fill="#BD2E2B" d="M637.6,866c0,0-7.1,26.7-17,26.7c-9.9,0-18.9-0.8-21.9,8.9h41.8c0,0,7.7,0.7,13.9-9.1
		c6.3-9.8,10.5-20.5,10.5-20.5s-3-13.2-10.2-19.2C647.6,846.7,637.6,866,637.6,866z"/>
	
		<rect x="408.2" y="558.1" transform="matrix(0.9918 -0.1275 0.1275 0.9918 -89.4537 58.4081)" fill="#161616" width="7" height="340.2"/>
	<path fill="#0D3E59" d="M439.2,871.3l-18.1,2.3c-1,0.1-1.9-0.6-2-1.5l-2-15.2c-0.1-1,0.6-1.9,1.5-2l18.1-2.3c1-0.1,1.9,0.6,2,1.5
		l2,15.2C440.9,870.3,440.2,871.2,439.2,871.3z"/>
	<path fill="#BD2E2B" d="M389.5,855.8c0,0,4.5-8.9,24.3,3.7c19.8,12.6,24.3,15.7,28.8,14.4c4.5-1.2,13.8-4.7,13.8-4.7l5.8,13.2
		l0.4,7.7c0,0-3.3,14.4-10.8,21.4C444.4,918.7,389.5,855.8,389.5,855.8z"/>
	<g>
		
			<rect x="725.5" y="570.6" transform="matrix(0.8715 -0.4905 0.4905 0.8715 -269.5752 452.7782)" fill="#161616" width="7" height="340.2"/>
		<path fill="#0D3E59" d="M651.6,594.4l-7.5,4.2c-1.8,1-4.1,0.4-5.1-1.4L608.5,543c-1-1.8-0.4-4.1,1.4-5.1l7.5-4.2
			c1.8-1,4.1-0.4,5.1,1.4l30.5,54.2C654.1,591.1,653.4,593.4,651.6,594.4z"/>
		<path fill="#0D3E59" d="M808.3,863l-15.9,8.9c-0.9,0.5-2,0.2-2.4-0.7l-7.5-13.4c-0.5-0.9-0.2-2,0.7-2.4l15.9-8.9
			c0.9-0.5,2-0.2,2.4,0.7l7.5,13.4C809.5,861.4,809.2,862.5,808.3,863z"/>
	</g>
	<path fill="#05181E" d="M575.4,622.9c-1.7,0.3-3.3,0.6-4.8,0.8c-34,5.6-56.2,1.8-69.5-2.9c-2.7-9.2-4.3-14.8-4.3-14.8l18.4-13.1
		c0,0,44.7-5.4,54.3,8.6C571.8,604.9,573.7,612.7,575.4,622.9z"/>
	<path fill="#0A2835" d="M645.3,836.4l-6.4,19.3l-15.7-4.6c-17.2,6.1-49.3-45.4-74-95.8c-18.8-38.4-39.3-104.9-48.1-134.4
		c13.3,4.7,35.5,8.4,69.5,2.9c1.6-0.3,3.2-0.5,4.8-0.8c5.3,32.3,8.2,88.7,13.4,104.5c6.8,20.7,50,73.3,56.5,86.8
		C651.7,827.8,645.3,836.4,645.3,836.4z"/>
	<path fill="#0D3E59" d="M592.7,614.3c-3.2,12.9-8.8,30-18.2,44.5c-15.7,24.3-71.1,179.4-79.3,196.9c-8.2,17.5-18.2,11.1-18.2,11.1
		l-21.8,1.8l-8.2-11.8c-6.8-10.4,8.6-48.6,8.6-48.6c19.3-62.2,55.7-151.1,70.8-187c11.8,1,26.4,0.6,44.3-2.3
		C577.4,617.8,584.8,616.2,592.7,614.3z"/>
	<path fill="#0A2835" d="M623.1,851c0,0,7.5,13.9,12.2,17.5c4.6,3.6,20.4-7.5,22.5-15.7l-11.4-18.4
		C646.3,834.4,636.7,843.9,623.1,851z"/>
	<path fill="#FFFFFF" d="M567.8,619.3C515.6,726.5,469.9,866,469.9,866l-2.5,7.2l-3.8-9.5c22.6-85.9,75.3-202.7,94-243
		C560.9,620.3,564.3,619.8,567.8,619.3z"/>
	<path fill="#0A2835" d="M464.7,859.5c-0.6,7.5-5.3,15-9.6,20.3c-2.7-1.9-6.7-3.9-12.4-5.9c0,0,1.8-12.9,4.3-17.2
		C448.3,854.3,457,856.4,464.7,859.5z"/>
	<path fill="#0A2835" d="M467.6,890.2c0,0-2.5,1-5,0c-1-0.4-0.9-2-2-4.2c11-13.7,10.4-23.6,10.4-23.6c3.1,1.6,5.3,3.2,5.8,4.4
		C478.7,871,471.5,885.1,467.6,890.2z"/>
	<path fill="#DDDDDD" d="M572.5,610c-1.5,3.1-3.1,6.2-4.6,9.3c-3.5,0.6-6.9,1-10.2,1.4c4.3-9.2,6.8-14.4,6.8-14.4L572.5,610z"/>
	<path fill="#0A3447" d="M595.9,595.9c-0.2,2.7-1.1,9.6-3.3,18.4c-7.9,2-15.2,3.5-22.1,4.6c-0.9,0.2-1.8,0.3-2.7,0.4
		c1.5-3.1,3.1-6.2,4.6-9.3l-8-3.8c0,0-2.5,5.2-6.8,14.4c-12.2,1.3-22.6,1.3-31.4,0.5c4.2-10.1,6.8-16,6.8-16s19.3-12.9,21.4-13.2
		C556.6,591.6,596.3,589.1,595.9,595.9z"/>
	<path fill="#FFFFFF" d="M460.7,886c-0.8-1.7-2.3-3.9-5.6-6.2c4.3-5.4,9-12.8,9.6-20.3c2.3,0.9,4.5,1.9,6.4,2.9
		C471.1,862.4,471.6,872.2,460.7,886z"/>
	<path fill="#FFCDC0" d="M500.8,485.5c0,0-1,1.8-2.6,4.8c-5.3,10-16.8,33.1-16.8,44.2c0,14.3-27.4,11.4-27.4,11.4s-23,0-42.9,0H384
		c-10.4,0-9.3-18.2-9.3-30.4c0-12.1,17.2-8.9,23.9-8.9c6.8,0,12.5,12.5,12.5,12.5s18.6,0,40.4,0c20.5,0,16-41.8,15.4-46.7
		c0-0.3-0.1-0.5-0.1-0.5l22.5-11.5L500.8,485.5z"/>
	<path fill="#E29986" d="M500.8,485.5c0,0-0.1,0.2-0.3,0.6c-3,1.4-6.5,2.3-10.7,2.3c-7.5,0-15.1-0.6-22-1.6c0-8.3-0.9-14.8-0.9-14.8
		l22.5-11.5L500.8,485.5z"/>
	<path fill="#0D3E59" d="M498.2,490.2c-5.3,10-16.8,33.1-16.8,44.2c0,14.3-27.4,11.4-27.4,11.4s-23,0-42.9,0V519c0,0,18.6,0,40.4,0
		c20.5,0,16-41.8,15.4-46.7l28.2,2.8L498.2,490.2z"/>
	<path fill="#E57245" d="M642.4,464c-2,3.9-3.9,7.2-5.7,9.8c-10.3,14.9-17.5,11.3-17.5,11.3l-22.9-29.3c0,4.6,0.1,10.3,0.2,16.6
		c0.1,4.2,0.2,8.7,0.3,13.5c1.3,47.8,4.5,117.8,4.5,117.8c-11.2,3.1-21.4,5.3-30.7,6.9c-1.5,0.2-3,0.5-4.4,0.7
		c-60.4,8.7-81.7-12.5-81.7-12.5c-5-79-3.2-118.6-3.2-118.6c-17.1-0.7-27.2-6.1-27.2-6.1c6.5-47.4,17.5-66.8,26-75.2
		c2.7-2.7,5.1-4.2,7-5.2c0.5-0.3,1.1-0.5,1.5-0.7c0.8-0.3,1.5-0.6,2-0.8c2.4-1,6.2-2.5,9.6-3.8c2.3-0.8,4.4-1.6,5.9-2.2
		c1.5-0.5,2.4-0.9,2.4-0.9l4.5-1l27.5-6l8-1.7c2.4,0,4.8,0.1,7,0.2c3,0.1,5.9,0.3,8.6,0.5c13.7,1.1,23,3.2,29.6,5.8
		c8.6,3.5,12.7,8,15.9,12.4c6.4,8.9,37.2,37.5,37.2,37.5S655.6,437.9,642.4,464z"/>
	<path fill="#662410" d="M642.4,464c8.5-16.8,7.8-24.8,6.3-28.4c-1.3-1.3-5.2,0.1-17,17c-17.5,25-12.9,31.9-12.5,32.5l0,0
		C619.2,485.1,629.2,490.1,642.4,464z"/>
	<path fill="#FFCDC0" d="M659.5,564.2c-0.1,0.6-0.3,1.2-0.3,1.7c-1.7,8.7-8.3,16.8-16.2,20.8c-7.4,3.7-15.9,3.8-22.4-2.7
		c-13.5-13.5-16.1-18.1-13.6-28.1c0.2-0.9,0.6-1.7,1.2-2.5c5.3-7.1,23.4-7.3,25.6-7.3L659.5,564.2z"/>
	<path fill="#FFCDC0" d="M664.1,540.9l-29.1-7.7c1-12.4,2.3-31.1,2.3-41.8c0-6.5-2.3-11.3-5.1-14.8c3.2-6.8,10.4-19.6,20.2-23.8
		C671,477.2,668.4,515.1,664.1,540.9z"/>
	<path fill="#EAA28F" d="M643,586.6c-7.4,3.7-15.9,3.8-22.4-2.7c-13.5-13.5-16.1-18.1-13.6-28.1c0.2-0.9,0.6-1.7,1.2-2.5
		C612.9,563.8,622.5,577.6,643,586.6z"/>
	<path fill="#0D3E59" d="M394.8,563.5l-8.5,1.1c-2.1,0.3-3.9-1.2-4.2-3.2l-7.9-61.7c-0.3-2.1,1.2-3.9,3.2-4.2l8.5-1.1
		c2.1-0.3,3.9,1.2,4.2,3.2l7.9,61.7C398.3,561.4,396.9,563.3,394.8,563.5z"/>
	<path fill="#E29986" d="M394.8,546.1h-16.6c-2.4,0-4.3-1.9-4.3-4.3v-32.1c0-2.4,1.9-4.3,4.3-4.3h16.6c2.4,0,4.3,1.9,4.3,4.3v32.1
		C399.1,544.1,397.2,546.1,394.8,546.1z"/>
	<path fill="#F2BAAF" d="M400.5,526.5h-7.4c-1.2,0-2.2-1-2.2-2.2v-15.9c0-1.2,1-2.2,2.2-2.2h7.4c1.2,0,2.2,1,2.2,2.2v15.9
		C402.7,525.5,401.7,526.5,400.5,526.5z"/>
	
		<ellipse transform="matrix(0.6676 -0.7445 0.7445 0.6676 -518.1066 606.9573)" fill="#A3A3A3" cx="420.7" cy="883.7" rx="7.5" ry="41.9"/>
	<path fill="#CE5F3C" d="M601.3,603.7c-11.2,3.1-21.4,5.3-30.7,6.9c-1.5,0.2-3,0.5-4.4,0.7l30.2-155.5
		C596.3,494.4,601.3,603.7,601.3,603.7z"/>
	<path fill="none" stroke="#D7EDF7" stroke-width="2" stroke-miterlimit="10" d="M544.5,382.1c-11.3,26.3-26.4,40.2-26.4,40.2
		c-8.4-13.5-7-27.2-5.5-33.9l27.5-6L544.5,382.1z"/>
	<path fill="#E29986" d="M465.2,306.8c0,0-11.2-8.1-11.2,7.6c0,15.7,11.2,12,11.2,12V306.8z"/>
	<path fill="#FFCDC0" d="M563.8,311.7c0,13.6-14.7,13.6-14.7,13.6c0,5.7-3.9,17.9-6.1,22.9c-2.1,5,1.8,29.7,1.8,29.7l-25,33.2
		c0,0-6.8-11.8-5.7-28.6c1.1-16.8-15-11.8-36.1-14.3c-4.2-0.5-7.1-4.8-9.1-11.5c0,0,0-0.1,0-0.1c-0.5-1.6-0.9-3.3-1.3-5.2
		c-3.4-17-2.7-43.4-1.6-62.7c0.9-13.9,2-24.1,2-24.4c0,0,12.5-17.9,13.2-18.9c0.7-1.1,30.7-3.6,30.7-3.6l22.8,11.7l11.9,6.1
		l0.8,27.7L548,306C549.1,305.3,563.8,298.2,563.8,311.7z"/>
	<path fill="#F2BAAF" d="M563.8,311.8c0,13.6-14.7,13.6-14.7,13.6c0,5.7-3.9,17.9-6.1,22.9c-2.1,5,1.8,29.7,1.8,29.7l-25,33.2
		c0,0-6.8-11.8-5.7-28.6c1.1-16.8-15-11.8-36.1-14.3c-4.2-0.5-7.1-4.8-9.1-11.5c2,3.7,6.8,8,18.6,8c20.9,0,47.2,2.4,47.2-20.1v-91.2
		l11.9,6.1L548,306C549.1,305.3,563.8,298.2,563.8,311.8z"/>
	<path fill="#C67C6D" d="M550.4,319.6c0,0-0.2-11.2,6.6-12s1.8,8.6,0,9.2C555.2,317.4,550.8,317.4,550.4,319.6z"/>
	<ellipse fill="#1C1C1C" cx="478.5" cy="312.4" rx="4" ry="6"/>
	<ellipse fill="#1C1C1C" cx="514.4" cy="312.4" rx="4" ry="6"/>
	<path fill="#ED6969" d="M490.1,313.6c0,0-3.6,12.4-6.6,16.5s9.6,9.5,10.4-1S490.1,313.6,490.1,313.6z"/>
	<path fill="#212121" d="M511,337.1c0,0-2.4,2.7-5.7,5.7h0c-4.2,3.8-9.9,8-14.3,8c-2.9,0-5.5-1.8-7.7-4c-3.9-4.1-6.4-9.7-6.4-9.7
		s1.6,0.4,4.5,0.9c4.5,0.6,12.2,1.2,22.3,0.1C506.1,337.9,508.5,337.5,511,337.1z"/>
	<path fill="#FFFFFF" d="M503.8,338.1v0.8c0,1.2-1,2.1-2.1,2.1h-18.1c-1.2,0-2.1-0.9-2.1-2.1V338
		C485.9,338.6,493.6,339.2,503.8,338.1z"/>
	<path fill="#D64D4D" d="M505.3,342.8c-4.2,3.8-9.9,8-14.3,8c-2.9,0-5.5-1.8-7.7-4C485.9,344.6,491.7,342.3,505.3,342.8z"/>
	<g>
		<path fill="#B27B22" d="M467.6,298.7c0.8-1.7,2.1-3.1,3.7-4.2c1.6-1.1,3.6-1.7,5.6-1.6c2,0.1,3.9,0.8,5.5,1.8
			c0.8,0.5,1.5,1.2,2.2,1.8c0.6,0.7,1.2,1.4,1.7,2.2c-0.8-0.4-1.6-0.9-2.3-1.4l-1.2-0.6c-0.4-0.2-0.7-0.5-1.1-0.6
			c-1.6-0.7-3.2-1.1-4.8-1.2c-1.6-0.1-3.2,0.3-4.8,1C470.5,296.6,469,297.6,467.6,298.7z"/>
	</g>
	<g>
		<path fill="#B27B22" d="M503.8,298.7c0.8-1.7,2.1-3.1,3.7-4.2c1.6-1.1,3.6-1.7,5.6-1.6c2,0.1,3.9,0.8,5.5,1.8
			c0.8,0.5,1.5,1.2,2.2,1.8c0.6,0.7,1.2,1.4,1.7,2.2c-0.8-0.4-1.6-0.9-2.3-1.4l-1.2-0.6c-0.4-0.2-0.7-0.5-1.1-0.6
			c-1.6-0.7-3.2-1.1-4.8-1.2c-1.6-0.1-3.2,0.3-4.8,1C506.7,296.6,505.2,297.6,503.8,298.7z"/>
	</g>
	<path fill="#0D3E59" d="M528,400.2c0,0,24.7,10.8,30.1,3.9c5.4-6.9-1.6-21.6-14-31.6l0.8,5.4L528,400.2z"/>
	<path fill="#0D3E59" d="M516,401.3c0,0-16.2,7.7-15.2-2.4c1.1-10,13.2-19,13.2-19S514.4,396.3,516,401.3z"/>
	<path fill="#CE5F3C" d="M481.2,480.1c-17.1-0.7-27.2-6.1-27.2-6.1c8.5-62.3,24.9-76.2,33-80.4C484.2,396.5,478.5,410.9,481.2,480.1
		z"/>
	<g>
		<path fill="#DD8F7A" d="M500.2,349.4c-0.2,2.3-1.4,4.3-3.2,5.7c-1.8,1.4-4.3,2.3-6.8,2c-2.5-0.2-4.7-1.4-6.2-3
			c-0.8-0.8-1.3-1.7-1.9-2.6c-0.4-1-0.7-2-0.8-3.2l0.3-0.3l2,1.8c0.7,0.5,1.4,1.1,2.1,1.5c1.5,0.9,3.2,1.5,4.9,1.7
			c1.7,0.2,3.5-0.2,5-0.9c0.8-0.4,1.5-0.8,2.2-1.4c0.7-0.5,1.4-1.1,2-1.7L500.2,349.4z"/>
	</g>
	<path fill="#DDCF22" d="M500.1,388.2c-13.7,23.2-18.9,91.8-18.9,91.8c0-0.3-0.1-0.5-0.2-0.8c-8-41.7-4.5-67.5-1.1-80.5
		c2.7-2.6,5-4.2,6.9-5.2c0,0,0,0,0.1,0c0.5-0.3,1.1-0.5,1.5-0.7c0.8-0.3,1.5-0.6,2-0.8C492.9,391,496.7,389.6,500.1,388.2z"/>
	<path fill="#C6B61E" d="M481.1,479.3c-8-41.7-4.5-67.5-1.1-80.5c2.7-2.6,5-4.2,6.9-5.2C480,418.4,480.7,465.8,481.1,479.3z"/>
	<path fill="#DDCF22" d="M600.3,487.6c-1.2-0.5-2.4-1.1-3.5-1.7c-30.8-17.4-33.3-79.5-32.8-108.8c6.1,0.5,11.4,1.2,15.9,2
		c5.6,1.1,10.1,2.4,13.7,3.8c-7.7,31.1-1.7,68.8,2.8,89.4C598.4,481.4,600.1,487.1,600.3,487.6z"/>
	<path fill="#C6B61E" d="M600.3,487.6c-18.6-27.5-20.7-80-20.3-108.5c5.6,1.1,10.1,2.4,13.7,3.8c-7.7,31.1-1.7,68.8,2.8,89.4
		C598.4,481.4,600.1,487.1,600.3,487.6z"/>
	<path fill="#BC3737" d="M698.4,503.8v43.8c0,5.8-4.7,10.5-10.5,10.5c-5.8,0-10.5-4.7-10.5-10.5v-43.8c0-1.1,0.2-2.1,0.5-3
		c1.3-4.3,5.3-7.5,10.1-7.5c2.9,0,5.5,1.2,7.4,3.1C697.2,498.3,698.4,500.9,698.4,503.8z"/>
	<path fill="#A52D2D" d="M698.4,503.8v25.7l-20.6-28.7c1.3-4.3,5.3-7.5,10.1-7.5c2.9,0,5.5,1.2,7.4,3.1
		C697.2,498.3,698.4,500.9,698.4,503.8z"/>
	<g>
		<path fill="#FFFFFF" d="M634,383.8c1.7-0.3,3.5-0.3,5.2-0.2c1.7,0.1,3.5,0.4,5.2,0.8c3.4,0.9,6.7,2.7,9.3,5.4
			c2.6,2.7,4.2,6.2,5,9.7c0.4,1.8,0.6,3.6,0.7,5.4c0.1,1.8,0.1,3.5,0.1,5.2l-0.1,10.2c-0.1,3.4-0.1,6.8-0.3,10.2
			c-0.1,3.4-0.3,6.8-0.5,10.2c-0.3,3.4-0.4,6.8-0.8,10.2h-0.2l-0.1-41c0-3.4,0.1-6.8-0.6-10.2c-0.7-3.3-2.1-6.5-4.4-9
			c-2.2-2.6-5.2-4.4-8.4-5.5c-3.2-1.1-6.6-1.6-10-1.5L634,383.8z"/>
	</g>
	<path fill="#BC3737" d="M547.4,287.3c-11.9,2.1-31.6,2.3-54.8,2.3c-14.5,0-22.3-0.4-26.6-0.9c0.9-13.9,2-24.1,2-24.4
		c0,0,12.5-17.9,13.2-18.9c0.7-1.1,30.7-3.6,30.7-3.6l22.8,11.7l11.9,6.1L547.4,287.3z"/>
	<path fill="#DDAE1B" d="M484.4,238.9c0,0-31-0.4-24.8,48.6l5.6,19.4l0.2-5.5c-0.1,1.7,0.8-37.7,13.9-44.5
		c-1.7,9.3-2.2,24.5,9.2,35.1l-4.9-30.4c8.1,12.5,30.7,42.4,58.7,34.4c-1.2,6.5-2.1,17.6,0.6,32.7c0,0,1.6-12.9,5.1-22.7l0,0.1
		c0,0,15.7-8,15.7,5.7l18.9-24.7C582.7,287.1,533.4,198.5,484.4,238.9z"/>
	<circle fill="#CE6241" cx="557.6" cy="460" r="14.2"/>
	<path fill="#0D3E59" d="M652.5,453c-6.8,2.9-12.4,9.9-16.2,16.2C640.2,462.9,645.7,455.8,652.5,453c-3.3-4.4-7.4-8.4-12.2-11.8
		c0,0-13,15.6-18.5,28c0,0,6,2,10.5,7.5c0,0,0,0,0,0c2.8,3.4,5.1,8.2,5.1,14.8c0,10.7-1.3,29.3-2.3,41.8l-1.3,12.8l9.3,7.4
		l16.5,10.7l4.6-23.2C668.4,515.1,671,477.2,652.5,453z"/>
</g>
</svg>
